<?xml version="1.0" standalone="no"?>
<!DOCTYPE svg PUBLIC "-//W3C//DTD SVG 20010904//EN"
 "http://www.w3.org/TR/2001/REC-SVG-20010904/DTD/svg10.dtd">
<svg version="1.0" xmlns="http://www.w3.org/2000/svg"
 width="500.000000pt" height="500.000000pt" viewBox="0 0 500.000000 500.000000"
 preserveAspectRatio="xMidYMid meet">

<g transform="translate(0.000000,500.000000) scale(0.100000,-0.100000)"
fill="#000000" stroke="none">
<path d="M4683 2698 c-45 -8 -53 -13 -53 -31 0 -30 -66 -214 -92 -255 -31 -51
-20 -62 59 -57 72 4 85 15 58 45 -28 31 -12 50 41 50 l47 0 -6 -45 c-7 -51
-13 -48 85 -49 76 -1 88 9 57 48 -11 14 -40 85 -65 158 -39 116 -56 150 -74
147 -3 -1 -29 -6 -57 -11z m37 -170 c0 -5 -11 -8 -25 -8 -29 0 -29 4 -13 68
l12 47 13 -50 c7 -27 13 -53 13 -57z m50 33 c0 -24 -17 1 -24 34 l-6 30 15
-25 c8 -14 14 -32 15 -39z m10 -37 c0 -8 -5 -12 -10 -9 -6 4 -8 11 -5 16 9 14
15 11 15 -7z m20 -65 c9 -31 8 -32 -5 -15 -8 11 -15 29 -15 40 0 26 9 16 20
-25z"/>
<path d="M225 2681 c-48 -22 -69 -44 -90 -94 -33 -80 -5 -168 67 -211 87 -51
237 -25 246 42 4 29 -21 38 -50 18 -57 -40 -151 -1 -164 70 -14 75 23 124 93
124 l43 0 0 -39 c0 -31 4 -41 21 -46 11 -4 23 -5 25 -2 6 6 34 107 34 123 0
13 -88 34 -143 34 -23 0 -60 -9 -82 -19z m-42 -128 c-3 -18 -9 -33 -14 -33 -5
0 -6 12 -3 28 13 53 25 57 17 5z m17 -83 c0 -5 -2 -10 -4 -10 -3 0 -8 5 -11
10 -3 6 -1 10 4 10 6 0 11 -4 11 -10z m47 -60 c21 -11 32 -20 25 -20 -15 0
-72 28 -72 35 0 8 9 6 47 -15z"/>
<path d="M595 2686 c-97 -45 -135 -168 -80 -261 30 -52 75 -75 147 -75 80 0
135 39 165 115 28 71 2 163 -58 205 -40 29 -129 37 -174 16z m150 -59 c18 -18
16 -18 -20 3 -52 30 -55 34 -25 25 14 -4 34 -16 45 -28z m-69 -12 c51 -35 77
-163 39 -191 -10 -8 -22 -14 -26 -14 -18 0 -64 48 -80 84 -43 96 -2 170 67
121z m-123 -52 c-6 -43 -23 -69 -23 -35 0 19 19 72 26 72 1 0 0 -17 -3 -37z
m227 6 c0 -6 -4 -7 -10 -4 -5 3 -10 11 -10 16 0 6 5 7 10 4 6 -3 10 -11 10
-16z m10 -62 c0 -18 -7 -42 -15 -53 -14 -18 -14 -17 -5 9 5 16 10 39 10 53 0
13 2 24 5 24 3 0 5 -15 5 -33z m-175 -98 c36 -19 37 -20 10 -14 -16 3 -37 13
-45 21 -20 19 -11 18 35 -7z"/>
<path d="M1753 2693 c-112 -3 -123 -5 -123 -22 0 -10 7 -25 16 -32 13 -11 15
-28 9 -114 -3 -55 -11 -110 -17 -122 -23 -48 -9 -53 136 -53 148 0 140 -4 151
72 6 40 5 46 -14 51 -16 4 -25 -2 -36 -24 -13 -23 -22 -29 -49 -29 -19 0 -41
-3 -50 -6 -13 -5 -16 2 -16 37 l0 44 37 0 c35 0 38 2 41 33 3 31 2 32 -37 32
-40 0 -41 1 -41 35 0 34 1 35 40 35 33 0 40 -4 40 -19 0 -29 53 -44 63 -17 3
7 9 34 12 60 7 44 6 46 -16 44 -13 -1 -79 -4 -146 -5z m-46 -125 c-2 -13 -4
-5 -4 17 -1 22 1 32 4 23 2 -10 2 -28 0 -40z m0 -50 c-3 -8 -6 -5 -6 6 -1 11
2 17 5 13 3 -3 4 -12 1 -19z m0 -70 c-2 -13 -4 -5 -4 17 -1 22 1 32 4 23 2
-10 2 -28 0 -40z"/>
<path d="M2065 2681 c-48 -22 -69 -44 -90 -94 -33 -80 -5 -168 67 -211 87 -51
237 -25 246 42 4 29 -21 38 -50 18 -57 -40 -151 -1 -164 70 -14 75 23 124 93
124 l43 0 0 -39 c0 -31 4 -41 21 -46 11 -4 23 -5 25 -2 6 6 34 107 34 123 0
13 -88 34 -143 34 -23 0 -60 -9 -82 -19z m-42 -128 c-3 -18 -9 -33 -14 -33 -5
0 -6 12 -3 28 13 53 25 57 17 5z m17 -83 c0 -5 -2 -10 -4 -10 -3 0 -8 5 -11
10 -3 6 -1 10 4 10 6 0 11 -4 11 -10z m36 -55 c10 -8 28 -15 39 -16 16 -1 17
-2 3 -6 -16 -4 -78 22 -78 32 0 9 16 5 36 -10z"/>
<path d="M2335 2685 c-2 -5 -6 -36 -9 -67 l-6 -58 30 0 c25 0 31 5 38 33 6 22
15 33 31 35 22 4 22 3 18 -105 -3 -59 -7 -121 -9 -138 l-3 -30 73 -1 c80 -1
98 11 68 45 -13 14 -16 40 -16 124 l0 107 26 0 c23 0 25 -3 22 -32 -3 -29 0
-33 24 -36 24 -3 28 1 38 39 7 23 12 54 13 67 l2 25 -169 1 c-105 1 -170 -3
-171 -9z m162 -117 c-2 -13 -4 -5 -4 17 -1 22 1 32 4 23 2 -10 2 -28 0 -40z
m0 -50 c-3 -8 -6 -5 -6 6 -1 11 2 17 5 13 3 -3 4 -12 1 -19z m0 -70 c-2 -13
-4 -5 -4 17 -1 22 1 32 4 23 2 -10 2 -28 0 -40z"/>
<path d="M2768 2693 c-60 -3 -68 -6 -68 -24 0 -11 7 -22 15 -25 23 -9 21 -205
-2 -245 -24 -41 -14 -45 110 -44 122 2 164 15 182 59 24 57 -9 99 -85 108 -21
3 -18 6 20 18 49 17 68 47 56 93 -12 49 -85 68 -228 60z m170 -39 c12 -8 22
-25 21 -37 l0 -22 -9 22 c-5 12 -22 29 -37 37 -16 8 -21 15 -13 16 9 0 26 -7
38 -16z m-67 -24 c26 -15 26 -66 -1 -75 -29 -9 -40 2 -40 39 0 46 8 53 41 36z
m-81 -42 c0 -21 -3 -29 -10 -22 -5 5 -7 19 -4 32 9 31 14 27 14 -10z m0 -58
c0 -5 -5 -10 -11 -10 -5 0 -7 5 -4 10 3 6 8 10 11 10 2 0 4 -4 4 -10z m-1 -67
c-1 -33 -2 -35 -8 -13 -4 14 -6 31 -3 38 8 22 12 13 11 -25z m111 22 c18 -22
4 -64 -25 -71 -35 -9 -45 2 -45 47 0 36 2 39 29 39 16 0 34 -7 41 -15z m70 -4
c5 -11 10 -26 9 -33 0 -9 -2 -8 -6 2 -3 8 -12 23 -21 33 -9 10 -11 17 -4 17 6
0 16 -9 22 -19z"/>
<path d="M3142 2679 c-117 -58 -125 -249 -12 -311 47 -26 148 -21 187 8 63 48
89 116 72 194 -23 109 -141 161 -247 109z m139 -35 c17 -8 29 -17 27 -20 -3
-2 -22 5 -43 16 -22 11 -34 20 -27 20 7 0 27 -7 43 -16z m-50 -24 c49 -27 79
-159 43 -195 -17 -16 -46 -13 -73 9 -40 32 -66 157 -39 184 15 15 43 15 69 2z
m-125 -67 c-7 -29 -12 -40 -14 -27 -3 19 13 74 21 74 2 0 -1 -21 -7 -47z m229
27 c3 -5 1 -10 -4 -10 -6 0 -11 5 -11 10 0 6 2 10 4 10 3 0 8 -4 11 -10z m15
-68 c0 -16 -6 -37 -14 -47 -11 -16 -12 -12 -2 28 12 54 16 58 16 19z m-175
-102 c29 -15 33 -20 18 -20 -11 0 -31 9 -44 20 -31 25 -23 25 26 0z"/>
<path d="M870 2670 c0 -11 7 -23 15 -26 22 -9 21 -193 -2 -241 -13 -29 -14
-36 -2 -43 17 -11 108 -9 115 2 3 5 -2 25 -11 44 -10 21 -15 53 -13 82 l3 47
17 -30 c22 -40 154 -155 179 -155 18 0 19 8 19 133 0 102 3 138 15 153 8 10
15 27 15 37 0 14 -10 17 -65 17 -59 0 -65 -2 -65 -20 0 -11 7 -23 15 -26 11
-5 15 -22 15 -68 -1 -50 -3 -57 -12 -41 -6 11 -40 50 -76 88 -64 64 -68 67
-114 67 -42 0 -48 -3 -48 -20z m150 -113 c0 -13 -29 12 -42 37 -10 19 -8 18
16 -3 14 -14 26 -29 26 -34z m35 -27 c3 -5 1 -10 -4 -10 -6 0 -11 5 -11 10 0
6 2 10 4 10 3 0 8 -4 11 -10z m61 -78 c-8 -7 -25 8 -37 31 -11 21 -10 21 15
-2 14 -14 24 -26 22 -29z"/>
<path d="M1250 2670 c0 -11 7 -23 15 -26 23 -9 21 -195 -1 -234 -27 -44 -14
-60 48 -57 62 2 72 11 52 48 -8 16 -14 52 -14 81 l0 53 19 -30 c34 -55 147
-155 175 -155 l26 0 0 130 c0 98 4 138 15 161 9 16 13 34 10 39 -3 6 -33 10
-66 10 -51 0 -59 -3 -59 -19 0 -10 7 -24 15 -31 17 -14 21 -110 5 -110 -5 0
-10 6 -10 13 0 8 -31 44 -69 80 -65 63 -72 67 -115 67 -40 0 -46 -3 -46 -20z
m150 -113 c0 -6 -11 0 -25 13 -14 13 -25 28 -25 33 0 6 11 0 25 -13 14 -13 25
-28 25 -33z m100 -110 c0 -6 -11 0 -25 13 -14 13 -25 28 -25 33 0 6 11 0 25
-13 14 -13 25 -28 25 -33z"/>
<path d="M3430 2670 c0 -11 7 -23 15 -26 22 -9 22 -210 -1 -242 -30 -43 -7
-52 138 -52 146 0 142 -2 143 85 0 44 -3 50 -22 53 -16 2 -24 -4 -32 -31 -10
-30 -17 -35 -53 -40 -23 -3 -46 -3 -50 -1 -15 9 -9 187 7 218 27 52 23 56 -65
56 -74 0 -80 -2 -80 -20z m90 -81 c0 -16 -4 -28 -9 -25 -8 5 -3 56 5 56 2 0 4
-14 4 -31z m0 -59 c0 -5 -5 -10 -11 -10 -5 0 -7 5 -4 10 3 6 8 10 11 10 2 0 4
-4 4 -10z m-1 -67 c0 -35 -1 -36 -10 -14 -5 14 -7 31 -5 38 10 24 16 13 15
-24z"/>
<path d="M3760 2670 c0 -11 7 -23 15 -26 23 -9 21 -190 -2 -239 -14 -29 -15
-38 -4 -44 18 -12 145 -4 149 8 2 6 -4 21 -12 33 -22 31 -22 197 -1 239 9 16
13 34 10 39 -3 6 -40 10 -81 10 -68 0 -74 -2 -74 -20z m90 -97 c0 -7 -4 -13
-10 -13 -5 0 -10 12 -10 28 0 21 2 24 10 12 5 -8 10 -21 10 -27z m-5 -43 c3
-5 1 -10 -4 -10 -6 0 -11 5 -11 10 0 6 2 10 4 10 3 0 8 -4 11 -10z m5 -52 c0
-7 -5 -20 -10 -28 -8 -12 -10 -9 -10 13 0 15 5 27 10 27 6 0 10 -6 10 -12z"/>
<path d="M3940 2670 c0 -10 7 -23 16 -28 8 -5 35 -64 60 -132 61 -168 56 -160
114 -160 l49 0 31 81 c17 45 41 107 52 138 11 31 29 66 40 78 29 31 15 43 -53
43 -50 0 -59 -3 -59 -18 0 -10 5 -23 10 -28 7 -7 2 -32 -15 -77 -14 -37 -25
-76 -25 -87 0 -11 -4 -20 -10 -20 -5 0 -10 10 -10 23 0 13 -11 50 -24 83 -14
37 -21 73 -18 92 l4 32 -81 0 c-74 0 -81 -2 -81 -20z m120 -99 c0 -21 -16 -2
-25 29 -7 24 -7 24 9 5 8 -11 16 -27 16 -34z m35 -106 l6 -30 -15 25 c-17 28
-22 60 -7 45 5 -6 12 -23 16 -40z"/>
<path d="M4340 2671 c0 -10 7 -24 15 -31 22 -18 21 -180 -1 -226 -26 -55 -16
-63 68 -59 76 4 96 18 63 45 -22 18 -22 216 1 248 8 12 12 27 9 32 -3 6 -40
10 -81 10 -66 0 -74 -2 -74 -19z m77 -103 c-2 -13 -4 -5 -4 17 -1 22 1 32 4
23 2 -10 2 -28 0 -40z m0 -50 c-3 -8 -6 -5 -6 6 -1 11 2 17 5 13 3 -3 4 -12 1
-19z m0 -70 c-2 -13 -4 -5 -4 17 -1 22 1 32 4 23 2 -10 2 -28 0 -40z"/>
</g>
</svg>
